:SAMPLES-PER-SECOND 30
:FULLY-SPECIFIED
:DEGREES
62
root  34.2225 37.3514 14.4241 -178.061 -67.3509 177.021
RightUpLeg  0.818491 -6.31389 -22.3144
RightLeg  55.4165 0.372506 0.188748
RightFoot  7.42214 -1.96891 12.1219
RightToes  -1.16417e-010 0 -3.6325e-017
Spine  13.3197 2.02011 -4.40738
Spine1  2.18675 -0.271701 8.66714
HEad  -21.5857 -11.2827 13.7502
LeftShoulder1  6.19246 -10.0891 -39.3326
LeftArm  -13.4765 25.7264 -37.5304
LeftForeArm  50.1716 -30.0916 -3.77437
LeftHand  -0.244104 0.0205437 5.32207
RightShoulder  3.82049 6.15281 33.6121
RightArm  -41.6837 -6.49343 19.493
RightForeArm  -65.3036 59.7481 22.9364
RightHand  -6.75223 16.67 -34.7585
LeftUpLeg  -23.643 10.722 -5.42213
LeftLeg  41.7363 4.50021 4.6685
LeftFoot  -15.402 0.302257 5.94808
LeftToes  4.18335e-011 -7.14095e-012 4.81992e-012
63
root  32.9843 38.4061 14.7437 178.184 -67.7988 -179.361
RightUpLeg  -5.06227 -6.358 -19.0998
RightLeg  61.0811 0.788719 0.994646
RightFoot  6.24904 -1.92435 12.693
RightToes  -1.16417e-010 0 -3.6325e-017
Spine  13.3641 1.49667 -2.74636
Spine1  2.10701 -0.819049 9.75627
HEad  -20.595 -8.30038 11.882
LeftShoulder1  6.37437 -10.3184 -39.8648
LeftArm  -13.1553 21.3274 -37.9961
LeftForeArm  54.0202 -39.0926 -5.8322
LeftHand  -0.244104 0.0205437 5.32207
RightShoulder  4.09487 6.66968 34.2943
RightArm  -39.4435 -4.08714 20.1924
RightForeArm  -65.4072 58.0876 21.4923
RightHand  -6.70702 16.7386 -34.4413
LeftUpLeg  -17.7356 10.7781 -4.80099
LeftLeg  34.4252 5.10233 4.13812
LeftFoot  -13.2126 0.195091 7.65234
LeftToes  4.18335e-011 -7.14095e-012 4.81992e-012
64
root  31.8373 39.68 15.0355 173.916 -68.8427 -174.986
RightUpLeg  -10.0889 -8.03553 -15.1136
RightLeg  62.4747 0.0553045 -0.422446
RightFoot  4.33799 -1.82868 13.4233
RightToes  -1.16417e-010 0 -3.6325e-017
Spine  13.6558 0.881742 -0.432153
Spine1  1.49829 -1.35579 10.7711
HEad  -18.7154 -6.6198 8.83007
LeftShoulder1  6.65442 -10.7684 -40.3487
LeftArm  -11.4137 15.9321 -37.8057
LeftForeArm  49.9918 -44.2357 -7.54528
LeftHand  -0.244104 0.0205437 5.32207
RightShoulder  4.35166 7.12842 34.9659
RightArm  -37.9419 -2.48186 20.466
RightForeArm  -63.4342 57.512 21.0408
RightHand  -6.5714 16.6693 -33.8904
LeftUpLeg  -11.4865 11.7318 -3.51616
LeftLeg  25.0467 3.12123 2.06491
LeftFoot  -7.42457 -0.18715 7.4369
LeftToes  4.18335e-011 -7.14095e-012 4.81992e-012
65
root  30.7114 40.8191 15.2572 170.483 -70.7677 -170.794
RightUpLeg  -15.0133 -10.7498 -10.8297
RightLeg  61.0191 -1.44518 -3.33737
RightFoot  2.92959 -1.41437 11.3999
RightToes  -1.16417e-010 0 -3.6325e-017
Spine  13.3806 0.0771803 1.37398
Spine1  0.161418 -2.07683 12.082
HEad  -15.9994 -5.93327 5.57899
LeftShoulder1  6.9103 -11.2629 -40.5149
LeftArm  -10.2555 10.3847 -37.121
LeftForeArm  44.6267 -47.4354 -8.97981
LeftHand  -0.244104 0.0205437 5.32207
RightShoulder  4.50677 7.39117 35.3966
RightArm  -37.5962 -1.56289 20.7508
RightForeArm  -61.2397 57.8798 21.3404
RightHand  -6.29943 16.2182 -33.2155
LeftUpLeg  -6.50465 12.7052 -1.9554
LeftLeg  16.7363 -0.437732 -0.253261
LeftFoot  -1.61553 -0.23698 2.92023
LeftToes  4.18335e-011 -7.14095e-012 4.81992e-012
66
root  29.6167 41.5847 15.4272 168.071 -73.4454 -167.371
RightUpLeg  -19.9926 -13.4752 -6.9806
RightLeg  58.2326 -2.62066 -5.046
RightFoot  1.41528 -1.00085 9.04675
RightToes  -1.16417e-010 0 -3.6325e-017
Spine  13.0395 -0.912002 2.03316
Spine1  -1.95095 -3.00596 13.4111
HEad  -13.7989 -5.27303 3.97858
LeftShoulder1  6.97117 -11.5442 -40.0707
LeftArm  -9.97658 5.09688 -36.3338
LeftForeArm  42.1197 -50.346 -10.2972
LeftHand  -0.244104 0.0205437 5.32207
RightShoulder  4.47222 7.33059 35.3081
RightArm  -38.09 -0.770675 21.3038
RightForeArm  -58.9409 58.7457 22.0605
RightHand  -5.91596 15.4408 -32.4161
LeftUpLeg  -3.22943 10.2897 -0.354616
LeftLeg  11.8795 1.66128 -1.62476
LeftFoot  -0.239016 0.275052 -2.99534
LeftToes  4.18335e-011 -7.14095e-012 4.81992e-012
67
root  28.5631 41.9324 15.5534 166.377 -76.1583 -165.524
RightUpLeg  -23.838 -15.5497 -4.12542
RightLeg  54.2377 -2.84173 -4.659
RightFoot  -0.274486 -0.942599 9.71601
RightToes  -1.16417e-010 0 -3.6325e-017
Spine  13.5667 -1.69282 1.33033
Spine1  -3.94738 -3.81603 14.4761
HEad  -13.0174 -4.56062 4.3791
LeftShoulder1  6.83024 -11.6045 -39.0095
LeftArm  -9.80521 -0.744043 -35.929
LeftForeArm  42.6397 -52.8084 -11.3481
LeftHand  -0.244104 0.0205437 5.32207
RightShoulder  4.29564 7.0689 34.6696
RightArm  -39.1923 0.288199 21.7685
RightForeArm  -55.0555 59.9737 23.1425
RightHand  -5.56435 14.8223 -31.4871
LeftUpLeg  -0.223634 8.3138 0.553903
LeftLeg  9.6073 8.07098 -1.80356
LeftFoot  -1.96053 0.463479 -5.44801
LeftToes  4.18335e-011 -7.14095e-012 4.81992e-012
68
root  27.5024 41.8399 15.6129 165.19 -78.4895 -165.094
RightUpLeg  -26.2768 -17.3545 -1.67829
RightLeg  49.0721 -2.55382 -3.49904
RightFoot  -1.49046 -0.945965 10.8037
RightToes  -1.16417e-010 0 -3.6325e-017
Spine  14.5481 -2.0021 -0.382328
Spine1  -5.00714 -4.33341 15.511
HEad  -13.8027 -4.0864 6.13161
LeftShoulder1  6.65301 -11.686 -37.6614
LeftArm  -9.48852 -7.63193 -35.8805
LeftForeArm  44.2989 -54.1597 -11.8739
LeftHand  -0.244104 0.0205437 5.32207
RightShoulder  4.09379 6.83619 33.644
RightArm  -40.7119 1.50362 21.7527
RightForeArm  -49.6984 61.4976 24.5917
RightHand  -5.40867 14.7708 -30.7355
LeftUpLeg  3.44237 7.05658 1.26506
LeftLeg  7.92412 15.9965 -1.97658
LeftFoot  -2.79732 0.311441 -3.96169
LeftToes  4.18335e-011 -7.14095e-012 4.81992e-012
69
root  26.4193 41.314 15.6169 163.256 -80.9061 -163.746
RightUpLeg  -28.4907 -19.3864 1.28781
RightLeg  43.1052 -2.03858 -2.34809
RightFoot  -2.21429 -0.763591 9.34047
RightToes  -1.16417e-010 0 -3.6325e-017
Spine  15.0673 -2.23289 -2.29994
Spine1  -5.51782 -4.85634 16.5403
HEad  -15.1317 -3.98093 8.25547
LeftShoulder1  6.51146 -11.8822 -36.2297
LeftArm  -9.29724 -15.1602 -35.7037
LeftForeArm  45.0375 -54.1942 -11.836
LeftHand  -0.244104 0.0205437 5.32207
RightShoulder  3.86843 6.61836 32.2703
RightArm  -42.2074 2.61744 21.5525
RightForeArm  -45.2626 62.9745 26.149
RightHand  -5.65528 15.52 -30.9574
LeftUpLeg  6.6176 6.97189 2.04255
LeftLeg  6.85436 19.3855 -2.81228
LeftFoot  -3.91812 0.167424 -2.22532
LeftToes  4.18335e-011 -7.14095e-012 4.81992e-012
70
root  25.314 40.4372 15.5924 159.535 -84.0228 -160.17
RightUpLeg  -30.6544 -21.4726 4.09473
RightLeg  36.6275 -0.739679 -0.866673
RightFoot  -3.0327 -0.673061 9.02002
RightToes  -1.16417e-010 0 -3.6325e-017
Spine  15.3047 -2.81967 -4.40127
Spine1  -6.0095 -5.71579 17.2343
HEad  -15.4835 -4.30506 9.64231
LeftShoulder1  6.34335 -12.0192 -34.8036
LeftArm  -9.45758 -22.9321 -35.147
LeftForeArm  44.2353 -52.9823 -11.3147
LeftHand  -0.244104 0.0205437 5.32207
RightShoulder  3.56919 6.26076 30.5899
RightArm  -43.3344 3.82268 21.5643
RightForeArm  -43.1821 63.961 27.3143
RightHand  -6.36876 17.054 -32.3715
LeftUpLeg  8.17471 8.39879 2.41123
LeftLeg  8.66295 16.2895 -3.10565
LeftFoot  -9.38109 0.0899927 -2.0889
LeftToes  4.18335e-011 -7.14095e-012 4.81992e-012
71
root  24.1003 39.396 15.5375 173.863 -87.2494 -175.131
RightUpLeg  -31.5019 -23.4142 5.43442
RightLeg  30.4053 1.23367 0.549206
RightFoot  -3.84239 -0.854504 12.546
RightToes  -1.16417e-010 0 -3.6325e-017
Spine  15.7775 -3.36266 -7.52333
Spine1  -5.95422 -6.70368 17.7756
HEad  -16.1482 -4.41551 10.8636
LeftShoulder1  6.20758 -12.0621 -33.8337
LeftArm  -10.1029 -30.0341 -34.3412
LeftForeArm  43.0083 -50.9612 -10.4952
LeftHand  -0.244104 0.0205437 5.32207
RightShoulder  3.27437 5.84394 29.0448
RightArm  -44.0892 5.15743 21.4229
RightForeArm  -42.4859 64.4052 27.8818
RightHand  -7.17492 18.6581 -33.9275
LeftUpLeg  9.20223 10.6283 1.54106
LeftLeg  13.2095 11.298 -2.06493
LeftFoot  -17.6909 0.0211588 -1.69052
LeftToes  4.18335e-011 -7.14095e-012 4.81992e-012
72
root  22.6849 38.5203 15.4474 -129.121 -88.0289 126.55
RightUpLeg  -30.6594 -24.8944 5.99064
RightLeg  25.6149 2.62597 1.16757
RightFoot  -3.64574 -0.917931 13.287
RightToes  -1.16417e-010 0 -3.6325e-017
Spine  15.916 -3.12303 -11.2258
Spine1  -4.63591 -7.23284 18.3776
HEad  -17.7719 -4.36244 12.3301
LeftShoulder1  6.27832 -12.229 -33.8577
LeftArm  -11.0565 -34.1255 -33.4545
LeftForeArm  42.3248 -49.0853 -9.76512
LeftHand  -0.244104 0.0205437 5.32207
RightShoulder  3.15139 5.65796 28.3979
RightArm  -44.3391 5.59664 20.7083
RightForeArm  -41.9014 64.689 28.2521
RightHand  -7.47714 19.2482 -34.4617
LeftUpLeg  11.4722 12.6752 -0.307376
LeftLeg  17.0342 8.89843 -0.300997
LeftFoot  -23.2616 0.0279259 -0.997253
LeftToes  4.18335e-011 -7.14095e-012 4.81992e-012
73
root  21.0425 38.0072 15.3169 -119.7 -85.4757 116.145
RightUpLeg  -29.3782 -24.0058 6.99448
RightLeg  23.9558 2.15584 0.839858
RightFoot  -2.49789 -0.369672 4.73275
RightToes  -1.16417e-010 0 -3.6325e-017
Spine  14.6751 -2.33608 -13.1338
Spine1  -2.60947 -6.89577 17.8734
HEad  -18.4429 -5.05242 13.3412
LeftShoulder1  6.55738 -12.5072 -34.8929
LeftArm  -11.4684 -33.1716 -32.4246
LeftForeArm  41.826 -48.1976 -9.45531
LeftHand  -0.244104 0.0205437 5.32207
RightShoulder  3.27081 5.82102 29.0869
RightArm  -43.7225 4.00501 19.9771
RightForeArm  -41.5279 65.0409 28.7331
RightHand  -7.05493 18.341 -33.8042
LeftUpLeg  14.6804 16.587 -0.906212
LeftLeg  19.1247 6.09083 0.951682
LeftFoot  -24.3727 -0.24377 -3.41713
LeftToes  4.18335e-011 -7.14095e-012 4.81992e-012
74
root  19.1907 37.6981 15.1594 -138.129 -83.2075 134.278
RightUpLeg  -28.5408 -18.6863 7.94358
RightLeg  26.7412 -1.21143 -0.949171
RightFoot  -2.33538 0.641974 -8.60835
RightToes  -1.16417e-010 0 -3.6325e-017
Spine  12.4806 -1.9382 -11.2436
Spine1  -1.15778 -5.82543 14.9979
HEad  -17.166 -6.5765 13.4581
LeftShoulder1  6.84195 -12.5426 -36.5424
LeftArm  -10.4634 -27.7832 -30.8843
LeftForeArm  41.2182 -48.2162 -9.50543
LeftHand  -0.244104 0.0205437 5.32207
RightShoulder  3.555 6.1848 30.7321
RightArm  -42.4046 0.749048 19.9508
RightForeArm  -42.3976 65.1809 28.9577
RightHand  -6.23034 16.3922 -32.6269
LeftUpLeg  17.0694 22.6087 1.62223
LeftLeg  22.9662 0.513099 0.725607
LeftFoot  -22.6284 -0.815715 -9.77566
LeftToes  4.18335e-011 -7.14095e-012 4.81992e-012
